<?xml version="1.0" encoding="utf-8"?>
<!-- Generator: Adobe Illustrator 21.0.2, SVG Export Plug-In . SVG Version: 6.00 Build 0)  -->
<!DOCTYPE svg PUBLIC "-//W3C//DTD SVG 1.1//EN" "http://www.w3.org/Graphics/SVG/1.1/DTD/svg11.dtd">
<svg version="1.1" id="Ebene_1" xmlns="http://www.w3.org/2000/svg" xmlns:xlink="http://www.w3.org/1999/xlink" x="0px" y="0px"
	 viewBox="0 0 170.1 170.1" style="enable-background:new 0 0 170.1 170.1;" xml:space="preserve">
<style type="text/css">
	.st0{fill:#FFFFFF;}
	.st1{fill:#06A1B0;}
	.st2{fill:#29896D;}
	.st3{fill:#EECB51;}
	.st4{fill:#EB6842;}
	.st5{fill:#CD3441;}
	.st6{fill:#725772;}
	.st7{fill:#343434;}
	.st8{fill:#E50C7E;}
</style>
<path class="st0" d="M125.8,10.9H44.3c-1.2,0-2.4,0.7-3,1.7L0.5,83.3c-0.6,1.1-0.6,2.4,0,3.5l40.8,70.6c0.6,1.1,1.8,1.7,3,1.7h81.6
	c1.2,0,2.4-0.7,3-1.7l40.8-70.6c0.6-1.1,0.6-2.4,0-3.5l-40.8-70.6C128.2,11.6,127.1,10.9,125.8,10.9z"/>
<path class="st1" d="M51.3,19.6l8.4,14.5c0.2,0.4,0.7,0.7,1.2,0.7h48.3c0.5,0,1-0.3,1.2-0.7l8.4-14.5c0.4-0.7,0.2-1.5-0.5-1.9
	c-0.2-0.1-0.5-0.2-0.7-0.2h-65c-0.8,0-1.4,0.6-1.4,1.4C51.1,19.1,51.2,19.4,51.3,19.6z"/>
<path class="st2" d="M29.5,80.8l24.1-41.8c0.2-0.4,0.2-1,0-1.4l-8.4-14.5c-0.4-0.7-1.2-0.9-1.9-0.5c-0.2,0.1-0.4,0.3-0.5,0.5
	L10.3,79.4c-0.4,0.7-0.2,1.5,0.5,1.9c0.2,0.1,0.5,0.2,0.7,0.2h16.7C28.8,81.5,29.2,81.3,29.5,80.8z"/>
<path class="st3" d="M53.6,131.1L29.5,89.3c-0.2-0.4-0.7-0.7-1.2-0.7H11.5c-0.8,0-1.4,0.6-1.4,1.4c0,0.2,0.1,0.5,0.2,0.7L42.8,147
	c0.4,0.7,1.2,0.9,1.9,0.5c0.2-0.1,0.4-0.3,0.5-0.5l8.4-14.5C53.9,132,53.9,131.5,53.6,131.1z"/>
<path class="st4" d="M109.2,135.2H60.9c-0.5,0-1,0.3-1.2,0.7l-8.4,14.5c-0.4,0.7-0.2,1.5,0.5,1.9c0.2,0.1,0.5,0.2,0.7,0.2h65
	c0.8,0,1.4-0.6,1.4-1.4c0-0.2-0.1-0.5-0.2-0.7l-8.4-14.5C110.2,135.5,109.7,135.3,109.2,135.2z"/>
<path class="st5" d="M140.6,89.2L116.4,131c-0.2,0.4-0.2,1,0,1.4l8.4,14.5c0.4,0.7,1.2,0.9,1.9,0.5c0.2-0.1,0.4-0.3,0.5-0.5
	l32.5-56.3c0.4-0.7,0.2-1.5-0.5-1.9c-0.2-0.1-0.5-0.2-0.7-0.2h-16.7C141.3,88.5,140.8,88.8,140.6,89.2z"/>
<path class="st6" d="M116.5,39l24.1,41.8c0.2,0.4,0.7,0.7,1.2,0.7h16.7c0.8,0,1.4-0.6,1.4-1.4c0-0.2-0.1-0.5-0.2-0.7l-32.5-56.3
	c-0.4-0.7-1.2-0.9-1.9-0.5c-0.2,0.1-0.4,0.3-0.5,0.5l-8.4,14.5C116.2,38.1,116.2,38.6,116.5,39z"/>
<g>
	<path class="st7" d="M62.1,125.9c0-0.7,0.1-1.2,0.4-1.6c0.3-0.4,0.6-0.6,1.1-0.6c0.3,0,0.6,0.1,0.8,0.2c0.2,0.1,0.4,0.3,0.5,0.6
		l0,0l0-0.7h0.2v4c0,0.5-0.1,1-0.4,1.3c-0.3,0.3-0.6,0.5-1.1,0.5c-0.2,0-0.4,0-0.6-0.1c-0.2,0-0.4-0.1-0.6-0.2l0.1-0.2
		c0.2,0.1,0.4,0.1,0.5,0.2c0.2,0,0.4,0.1,0.6,0.1c0.4,0,0.8-0.1,1-0.4c0.2-0.3,0.3-0.6,0.3-1.1v-0.6l0,0c-0.1,0.2-0.3,0.4-0.5,0.5
		c-0.2,0.1-0.5,0.2-0.8,0.2c-0.5,0-0.9-0.2-1.1-0.5C62.2,127.1,62.1,126.6,62.1,125.9L62.1,125.9z M62.3,126c0,0.6,0.1,1,0.3,1.4
		c0.2,0.3,0.5,0.5,1,0.5c0.4,0,0.7-0.1,0.9-0.2c0.2-0.2,0.4-0.4,0.5-0.7v-1.9c-0.1-0.3-0.3-0.6-0.5-0.8c-0.2-0.2-0.5-0.3-0.9-0.3
		c-0.4,0-0.8,0.2-1,0.5C62.4,124.9,62.3,125.3,62.3,126L62.3,126z"/>
	<path class="st7" d="M68,128c-0.5,0-0.9-0.2-1.3-0.6c-0.3-0.4-0.5-0.8-0.5-1.4v-0.2c0-0.6,0.2-1.1,0.5-1.5c0.3-0.4,0.7-0.6,1.2-0.6
		c0.5,0,0.8,0.1,1.1,0.4c0.3,0.3,0.4,0.7,0.4,1.2v0.3h-3.1v0v0.2c0,0.5,0.1,0.9,0.4,1.3c0.3,0.3,0.7,0.5,1.1,0.5
		c0.2,0,0.5,0,0.6-0.1c0.2-0.1,0.4-0.2,0.6-0.4l0.1,0.2c-0.2,0.2-0.3,0.3-0.6,0.4C68.5,128,68.3,128,68,128z M67.9,124
		c-0.4,0-0.8,0.1-1,0.4c-0.3,0.3-0.4,0.7-0.5,1.1h2.8v-0.1c0-0.4-0.1-0.8-0.4-1C68.6,124.1,68.3,124,67.9,124z"/>
	<path class="st7" d="M70.9,122.8v1.1h0.9v0.2h-0.9v2.8c0,0.3,0.1,0.6,0.2,0.7c0.1,0.1,0.3,0.2,0.4,0.2c0.1,0,0.1,0,0.2,0
		c0.1,0,0.1,0,0.2,0l0,0.2c-0.1,0-0.1,0-0.2,0c-0.1,0-0.1,0-0.2,0c-0.3,0-0.5-0.1-0.6-0.3c-0.1-0.2-0.2-0.5-0.2-0.9v-2.8h-0.8v-0.2
		h0.8v-1.1H70.9z"/>
	<path class="st7" d="M76,126c0,0.6-0.1,1.1-0.4,1.5c-0.3,0.4-0.6,0.5-1.1,0.5c-0.3,0-0.6-0.1-0.8-0.2c-0.2-0.1-0.4-0.3-0.5-0.5h0
		v2.2h-0.2v-5.7H73l0,0.7h0c0.1-0.2,0.3-0.4,0.5-0.6c0.2-0.1,0.5-0.2,0.8-0.2c0.5,0,0.9,0.2,1.1,0.6C75.8,124.7,76,125.3,76,126
		L76,126z M75.8,125.9c0-0.6-0.1-1-0.3-1.4c-0.2-0.3-0.6-0.5-1-0.5c-0.4,0-0.7,0.1-0.9,0.3c-0.2,0.2-0.4,0.4-0.5,0.7v1.9
		c0.1,0.3,0.3,0.5,0.5,0.7c0.2,0.2,0.5,0.2,0.9,0.2c0.4,0,0.8-0.2,1-0.5C75.6,127,75.8,126.6,75.8,125.9L75.8,125.9z"/>
	<path class="st7" d="M78.9,124l-0.3,0c-0.4,0-0.7,0.1-0.9,0.3c-0.2,0.2-0.4,0.5-0.4,0.9v2.7h-0.2v-4.1h0.2l0,0.7v0.1h0
		c0.1-0.3,0.3-0.5,0.5-0.7c0.2-0.2,0.5-0.2,0.8-0.2c0.1,0,0.1,0,0.2,0c0,0,0.1,0,0.1,0L78.9,124z"/>
	<path class="st7" d="M79.2,125.8c0-0.6,0.2-1.1,0.5-1.5c0.3-0.4,0.8-0.6,1.3-0.6c0.5,0,1,0.2,1.3,0.6c0.3,0.4,0.5,0.9,0.5,1.5v0.2
		c0,0.6-0.2,1.1-0.5,1.5c-0.3,0.4-0.8,0.6-1.3,0.6c-0.5,0-1-0.2-1.3-0.6c-0.3-0.4-0.5-0.9-0.5-1.5V125.8z M79.4,126
		c0,0.5,0.1,1,0.4,1.3c0.3,0.4,0.7,0.5,1.2,0.5c0.5,0,0.9-0.2,1.2-0.5c0.3-0.4,0.4-0.8,0.4-1.3v-0.2c0-0.5-0.1-0.9-0.4-1.3
		c-0.3-0.4-0.7-0.5-1.2-0.5c-0.5,0-0.9,0.2-1.2,0.5c-0.3,0.4-0.4,0.8-0.4,1.3V126z"/>
	<path class="st7" d="M83.5,125.8c0-0.6,0.2-1.1,0.5-1.5c0.3-0.4,0.8-0.6,1.3-0.6c0.5,0,1,0.2,1.3,0.6c0.3,0.4,0.5,0.9,0.5,1.5v0.2
		c0,0.6-0.2,1.1-0.5,1.5s-0.8,0.6-1.3,0.6c-0.5,0-1-0.2-1.3-0.6c-0.3-0.4-0.5-0.9-0.5-1.5V125.8z M83.7,126c0,0.5,0.1,1,0.4,1.3
		c0.3,0.4,0.7,0.5,1.2,0.5c0.5,0,0.9-0.2,1.2-0.5c0.3-0.4,0.4-0.8,0.4-1.3v-0.2c0-0.5-0.1-0.9-0.4-1.3c-0.3-0.4-0.7-0.5-1.2-0.5
		c-0.5,0-0.9,0.2-1.2,0.5c-0.3,0.4-0.4,0.8-0.4,1.3V126z"/>
	<path class="st7" d="M91.2,126c0,0.6-0.1,1.1-0.4,1.5c-0.3,0.4-0.6,0.5-1.1,0.5c-0.3,0-0.6-0.1-0.8-0.2c-0.2-0.1-0.4-0.3-0.5-0.5h0
		v2.2H88v-5.7h0.2l0,0.7h0c0.1-0.2,0.3-0.4,0.5-0.6c0.2-0.1,0.5-0.2,0.8-0.2c0.5,0,0.9,0.2,1.1,0.6S91.2,125.3,91.2,126L91.2,126z
		 M90.9,125.9c0-0.6-0.1-1-0.3-1.4s-0.6-0.5-1-0.5c-0.4,0-0.7,0.1-0.9,0.3c-0.2,0.2-0.4,0.4-0.5,0.7v1.9c0.1,0.3,0.3,0.5,0.5,0.7
		c0.2,0.2,0.5,0.2,0.9,0.2c0.4,0,0.8-0.2,1-0.5C90.8,127,90.9,126.6,90.9,125.9L90.9,125.9z"/>
	<path class="st7" d="M92.5,124.8L92.5,124.8c0.1-0.3,0.3-0.5,0.6-0.7c0.2-0.2,0.5-0.3,0.9-0.3c0.4,0,0.8,0.1,1,0.4
		c0.2,0.3,0.3,0.7,0.3,1.3v2.5H95v-2.5c0-0.6-0.1-0.9-0.3-1.1c-0.2-0.2-0.5-0.3-0.8-0.3c-0.4,0-0.7,0.1-1,0.4
		c-0.2,0.3-0.4,0.6-0.5,0.9v2.6h-0.2v-5.9h0.2V124.8z"/>
	<path class="st7" d="M96.8,128h-0.3v-0.5h0.3V128z"/>
	<path class="st7" d="M97.8,125.8c0-0.6,0.2-1.1,0.5-1.5c0.3-0.4,0.8-0.6,1.3-0.6c0.5,0,1,0.2,1.3,0.6c0.3,0.4,0.5,0.9,0.5,1.5v0.2
		c0,0.6-0.2,1.1-0.5,1.5c-0.3,0.4-0.8,0.6-1.3,0.6c-0.5,0-1-0.2-1.3-0.6c-0.3-0.4-0.5-0.9-0.5-1.5V125.8z M98,126
		c0,0.5,0.1,1,0.4,1.3c0.3,0.4,0.7,0.5,1.2,0.5c0.5,0,0.9-0.2,1.2-0.5c0.3-0.4,0.4-0.8,0.4-1.3v-0.2c0-0.5-0.1-0.9-0.4-1.3
		c-0.3-0.4-0.7-0.5-1.2-0.5c-0.5,0-0.9,0.2-1.2,0.5s-0.4,0.8-0.4,1.3V126z"/>
	<path class="st7" d="M104.2,124l-0.3,0c-0.4,0-0.7,0.1-0.9,0.3c-0.2,0.2-0.4,0.5-0.4,0.9v2.7h-0.2v-4.1h0.2l0,0.7v0.1h0
		c0.1-0.3,0.3-0.5,0.5-0.7c0.2-0.2,0.5-0.2,0.8-0.2c0.1,0,0.1,0,0.2,0c0,0,0.1,0,0.1,0L104.2,124z"/>
	<path class="st7" d="M104.7,125.9c0-0.7,0.1-1.2,0.4-1.6c0.3-0.4,0.6-0.6,1.1-0.6c0.3,0,0.6,0.1,0.8,0.2c0.2,0.1,0.4,0.3,0.5,0.6
		l0,0l0-0.7h0.2v4c0,0.5-0.1,1-0.4,1.3c-0.3,0.3-0.6,0.5-1.1,0.5c-0.2,0-0.4,0-0.6-0.1c-0.2,0-0.4-0.1-0.6-0.2l0.1-0.2
		c0.2,0.1,0.4,0.1,0.5,0.2c0.2,0,0.4,0.1,0.6,0.1c0.4,0,0.8-0.1,1-0.4s0.3-0.6,0.3-1.1v-0.6l0,0c-0.1,0.2-0.3,0.4-0.5,0.5
		c-0.2,0.1-0.5,0.2-0.8,0.2c-0.5,0-0.9-0.2-1.1-0.5C104.8,127.1,104.7,126.6,104.7,125.9L104.7,125.9z M104.9,126
		c0,0.6,0.1,1,0.3,1.4c0.2,0.3,0.5,0.5,1,0.5c0.4,0,0.7-0.1,0.9-0.2c0.2-0.2,0.4-0.4,0.5-0.7v-1.9c-0.1-0.3-0.3-0.6-0.5-0.8
		c-0.2-0.2-0.5-0.3-0.9-0.3c-0.4,0-0.8,0.2-1,0.5S104.9,125.3,104.9,126L104.9,126z"/>
</g>
<g>
	<g>
		<path class="st7" d="M58.7,85.4c0,2.1-0.5,3.8-1.4,5.1c-0.9,1.3-2.2,1.9-3.8,1.9c-1.2,0-2.3-0.5-3.1-1.4v6.3h-4.2V78.5h4l0.1,1.3
			c0.8-1,1.9-1.5,3.2-1.5c1.7,0,3,0.6,3.9,1.9c0.9,1.2,1.4,2.9,1.4,5.1V85.4z M54.4,85.1c0-2.4-0.7-3.6-2.1-3.6c-1,0-1.7,0.4-2,1.1
			v5.3c0.4,0.8,1,1.1,2,1.1c1.3,0,2-1.2,2.1-3.5V85.1z"/>
		<path class="st7" d="M68.8,82.3l-1.4-0.1c-1.3,0-2.2,0.4-2.6,1.3v8.6h-4.2V78.5h4l0.1,1.7c0.7-1.3,1.7-2,3-2
			c0.5,0,0.8,0.1,1.2,0.2L68.8,82.3z"/>
		<path class="st7" d="M69.8,85.2c0-1.4,0.3-2.6,0.8-3.6c0.5-1.1,1.3-1.9,2.3-2.4c1-0.6,2.1-0.9,3.5-0.9c2,0,3.6,0.6,4.8,1.9
			c1.2,1.3,1.8,3,1.8,5.1v0.2c0,2.1-0.6,3.8-1.8,5c-1.2,1.2-2.8,1.9-4.8,1.9c-1.9,0-3.5-0.6-4.7-1.7c-1.2-1.2-1.8-2.7-1.9-4.7
			L69.8,85.2z M74,85.4c0,1.3,0.2,2.2,0.6,2.8c0.4,0.6,1,0.9,1.7,0.9c1.5,0,2.3-1.2,2.3-3.5v-0.4c0-2.4-0.8-3.7-2.3-3.7
			c-1.4,0-2.2,1.1-2.3,3.2L74,85.4z"/>
		<path class="st7" d="M84.2,85.2c0-1.4,0.3-2.6,0.8-3.6c0.5-1.1,1.3-1.9,2.3-2.4c1-0.6,2.1-0.9,3.5-0.9c2,0,3.6,0.6,4.8,1.9
			c1.2,1.3,1.8,3,1.8,5.1v0.2c0,2.1-0.6,3.8-1.8,5c-1.2,1.2-2.8,1.9-4.8,1.9c-1.9,0-3.5-0.6-4.7-1.7c-1.2-1.2-1.8-2.7-1.9-4.7
			L84.2,85.2z M88.4,85.4c0,1.3,0.2,2.2,0.6,2.8c0.4,0.6,1,0.9,1.7,0.9c1.5,0,2.3-1.2,2.3-3.5v-0.4c0-2.4-0.8-3.7-2.3-3.7
			c-1.4,0-2.2,1.1-2.3,3.2L88.4,85.4z"/>
		<path class="st7" d="M111.8,85.4c0,2.1-0.5,3.8-1.4,5.1c-1,1.3-2.2,1.9-3.8,1.9c-1.2,0-2.3-0.5-3.1-1.4v6.3h-4.2V78.5h4l0.1,1.3
			c0.8-1,1.9-1.5,3.2-1.5c1.7,0,3,0.6,3.9,1.9c0.9,1.2,1.4,2.9,1.4,5.1V85.4z M107.5,85.1c0-2.4-0.7-3.6-2.1-3.6c-1,0-1.7,0.4-2,1.1
			v5.3c0.4,0.8,1,1.1,2,1.1c1.3,0,2-1.2,2.1-3.5V85.1z"/>
		<path class="st7" d="M117.8,79.9c0.9-1.1,2.1-1.7,3.5-1.7c1.5,0,2.6,0.4,3.4,1.3c0.8,0.9,1.2,2.2,1.2,3.9v8.6h-4.2v-8.5
			c0-0.7-0.1-1.2-0.4-1.6c-0.3-0.3-0.8-0.5-1.5-0.5c-0.9,0-1.5,0.3-1.8,0.8v9.7h-4.2V72.8h4.2L117.8,79.9L117.8,79.9z"/>
	</g>
</g>
<g>
	<path class="st8" d="M125.8,10.9c1.2,0,2.4,0.7,3,1.7l40.8,70.6c0.6,1.1,0.6,2.4,0,3.5l-40.8,70.6c-0.6,1.1-1.8,1.7-3,1.7H44.3
		c-1.2,0-2.4-0.7-3-1.7L0.5,86.8c-0.6-1.1-0.6-2.4,0-3.5l40.8-70.6c0.6-1.1,1.8-1.7,3-1.7H125.8 M125.8,9.9H44.3
		c-1.6,0-3.1,0.9-3.9,2.2L-0.4,82.8c-0.8,1.4-0.8,3.1,0,4.5l40.8,70.6c0.8,1.4,2.3,2.2,3.9,2.2h81.6c1.6,0,3.1-0.9,3.9-2.2
		l40.8-70.6c0.8-1.4,0.8-3.1,0-4.5l-40.8-70.6C128.9,10.8,127.4,9.9,125.8,9.9L125.8,9.9z"/>
</g>
</svg>
