<svg xmlns="http://www.w3.org/2000/svg" viewBox="0 0 400 200"><defs><style>.cls-1{fill:#04a1b0;}.cls-2{fill:#26896c;}.cls-3{fill:#eeca50;}.cls-4{fill:#eb6842;}.cls-5{fill:#cc3340;}.cls-6{fill:#715671;}</style></defs><title>prooph-logo-2-1</title><g id="artwork"><g id="Layer_5" data-name="Layer 5"><path class="cls-1" d="M157.22,17l10.61,18.38a1.77,1.77,0,0,0,1.53.89h61.25a1.77,1.77,0,0,0,1.53-.89L242.78,17a1.77,1.77,0,0,0-1.53-2.66H158.76A1.77,1.77,0,0,0,157.22,17Z"/><path class="cls-2" d="M129.54,94.68l30.63-53a1.77,1.77,0,0,0,0-1.77L149.55,21.48a1.77,1.77,0,0,0-3.07,0L105.24,92.91a1.77,1.77,0,0,0,1.53,2.66H128A1.77,1.77,0,0,0,129.54,94.68Z"/><path class="cls-3" d="M160.16,158.36l-30.63-53a1.77,1.77,0,0,0-1.53-.89H106.78a1.77,1.77,0,0,0-1.53,2.66l41.24,71.43a1.77,1.77,0,0,0,3.07,0l10.61-18.38A1.77,1.77,0,0,0,160.16,158.36Z"/><path class="cls-4" d="M230.63,163.68H169.37a1.77,1.77,0,0,0-1.53.89L157.22,183a1.77,1.77,0,0,0,1.53,2.66h82.48a1.77,1.77,0,0,0,1.53-2.66l-10.61-18.38A1.77,1.77,0,0,0,230.63,163.68Z"/><path class="cls-5" d="M270.46,105.32l-30.63,53a1.77,1.77,0,0,0,0,1.77l10.61,18.38a1.77,1.77,0,0,0,3.07,0l41.24-71.43a1.77,1.77,0,0,0-1.53-2.66H272A1.77,1.77,0,0,0,270.46,105.32Z"/><path class="cls-6" d="M239.84,41.64l30.63,53a1.77,1.77,0,0,0,1.53.89h21.23a1.77,1.77,0,0,0,1.53-2.66L253.52,21.48a1.77,1.77,0,0,0-3.07,0L239.84,39.86A1.77,1.77,0,0,0,239.84,41.64Z"/></g></g></svg>