<svg xmlns="http://www.w3.org/2000/svg" viewBox="0 0 200 200"><defs><style>.cls-1{fill:#333;}.cls-2{fill:#715671;}</style></defs><title>prooph-messaging</title><g id="artwork"><g id="Layer_5" data-name="Layer 5"><path class="cls-1" d="M57.19,17,67.8,35.43a1.77,1.77,0,0,0,1.53.89h61.25a1.77,1.77,0,0,0,1.53-.89L142.74,17a1.77,1.77,0,0,0-1.53-2.66H58.72A1.77,1.77,0,0,0,57.19,17Z"/><path class="cls-1" d="M29.5,94.68l30.63-53a1.77,1.77,0,0,0,0-1.77L49.51,21.48a1.77,1.77,0,0,0-3.07,0L5.2,92.91a1.77,1.77,0,0,0,1.53,2.66H28A1.77,1.77,0,0,0,29.5,94.68Z"/><path class="cls-1" d="M60.12,158.36l-30.63-53a1.77,1.77,0,0,0-1.53-.89H6.74a1.77,1.77,0,0,0-1.53,2.66l41.24,71.43a1.77,1.77,0,0,0,3.07,0l10.61-18.38A1.77,1.77,0,0,0,60.12,158.36Z"/><path class="cls-1" d="M130.59,163.68H69.33a1.77,1.77,0,0,0-1.53.89L57.19,183a1.77,1.77,0,0,0,1.53,2.66H141.2a1.77,1.77,0,0,0,1.53-2.66l-10.61-18.38A1.77,1.77,0,0,0,130.59,163.68Z"/><path class="cls-1" d="M170.42,105.32l-30.63,53a1.77,1.77,0,0,0,0,1.77l10.61,18.38a1.77,1.77,0,0,0,3.07,0l41.24-71.43a1.77,1.77,0,0,0-1.53-2.66H172A1.77,1.77,0,0,0,170.42,105.32Z"/><path class="cls-2" d="M139.8,41.64l30.63,53a1.77,1.77,0,0,0,1.53.89h21.23a1.77,1.77,0,0,0,1.53-2.66L153.48,21.48a1.77,1.77,0,0,0-3.07,0L139.8,39.86A1.77,1.77,0,0,0,139.8,41.64Z"/></g></g></svg>
